<svg data-v-423bf9ae="" xmlns="http://www.w3.org/2000/svg" viewBox="0 0 394 90" class="iconLeft"><!----><!----><!----><g data-v-423bf9ae="" id="6499d8fa-43ac-4ec2-9d57-da631cfbae99" fill="#253D52" transform="matrix(4.38596512019678,0,0,4.38596512019678,107.36842086498075,-1.271930286404185)"><path d="M3.54 9.58C5.18 10.05 5.75 10.54 5.75 11.68C5.75 13.06 5.15 13.52 3.84 13.52C2.58 13.52 1.95 12.94 1.90 11.90L0.60 11.90C0.62 13.52 1.62 14.71 3.78 14.71C5.95 14.71 7.08 13.79 7.08 11.66C7.08 9.73 5.85 8.95 4.00 8.43C2.63 8.04 2.10 7.59 2.10 6.51C2.10 5.39 2.69 4.89 3.85 4.89C4.86 4.89 5.59 5.33 5.68 6.44L7 6.44C6.85 4.38 5.50 3.71 3.82 3.71C1.86 3.71 0.80 4.70 0.80 6.55C0.80 8.47 1.89 9.10 3.54 9.58ZM8.69 3.88L8.69 14.55L9.98 14.55L9.98 6.20L12.08 11.14L13.17 11.14L15.29 6.10L15.29 14.55L16.58 14.55L16.58 3.88L15.09 3.88L12.67 9.69L10.28 3.88ZM24.67 9.58C26.31 10.05 26.88 10.54 26.88 11.68C26.88 13.06 26.28 13.52 24.96 13.52C23.70 13.52 23.07 12.94 23.03 11.90L21.73 11.90C21.74 13.52 22.75 14.71 24.91 14.71C27.08 14.71 28.21 13.79 28.21 11.66C28.21 9.73 26.98 8.95 25.13 8.43C23.76 8.04 23.23 7.59 23.23 6.51C23.23 5.39 23.81 4.89 24.98 4.89C25.98 4.89 26.71 5.33 26.81 6.44L28.13 6.44C27.97 4.38 26.63 3.71 24.95 3.71C22.99 3.71 21.92 4.70 21.92 6.55C21.92 8.47 23.02 9.10 24.67 9.58ZM31.19 15.05C30.95 15.92 30.51 16.11 29.81 16.11C29.53 16.11 29.36 16.09 29.13 16.00L29.13 17.25C29.44 17.35 29.69 17.39 30.06 17.39C31.46 17.39 32.27 16.73 32.93 14.32L35.14 6.24L33.73 6.24L32.07 13.15L30.09 6.24L28.69 6.24L31.32 14.60ZM38.85 9.67C37.74 9.48 37.28 9.23 37.28 8.32C37.28 7.62 37.72 7.18 38.75 7.18C39.86 7.18 40.26 7.63 40.29 8.47L41.50 8.47C41.50 6.93 40.66 6.08 38.78 6.08C37.00 6.08 36.02 6.96 36.02 8.37C36.02 10.07 37.03 10.53 38.53 10.78C39.68 10.98 40.32 11.24 40.32 12.28C40.32 13.17 39.79 13.61 38.75 13.61C37.53 13.61 37.07 13.10 37.07 12.21L35.84 12.21C35.84 13.85 36.78 14.71 38.70 14.71C40.59 14.71 41.62 13.79 41.62 12.19C41.62 10.35 40.26 9.91 38.85 9.67ZM45.63 13.54C44.74 13.54 44.38 13.22 44.38 12.00L44.38 7.66L46.28 7.66L46.28 6.52L44.39 6.52L44.39 4.58L43.08 4.58L43.08 11.96C43.08 13.83 43.62 14.71 45.35 14.71C45.72 14.71 46.12 14.66 46.28 14.62L46.28 13.47C46.10 13.51 45.86 13.54 45.63 13.54ZM52.11 12.22C52.08 13.17 51.69 13.61 50.55 13.61C49.35 13.61 48.93 13.03 48.93 11.63L48.93 10.71L53.38 10.71L53.38 9.17C53.38 7.04 52.50 6.08 50.54 6.08C48.61 6.08 47.66 7.08 47.66 9.24L47.66 11.54C47.66 13.82 48.57 14.71 50.57 14.71C52.49 14.71 53.27 13.87 53.31 12.22ZM50.55 7.20C51.77 7.20 52.15 7.87 52.15 9.23L52.15 9.69L48.93 9.69L48.93 9.30C48.93 7.80 49.35 7.20 50.55 7.20ZM58.31 6.08C57.43 6.08 56.71 6.36 56.29 6.87L56.22 6.24L55.10 6.24L55.10 14.55L56.39 14.55L56.39 8.89C56.39 7.77 57.04 7.21 58.00 7.21C59.21 7.21 59.57 7.81 59.57 9.17L59.57 14.55L60.86 14.55L60.86 8.89C60.86 7.77 61.50 7.21 62.47 7.21C63.67 7.21 64.04 7.81 64.04 9.17L64.04 14.55L65.32 14.55L65.32 9.06C65.32 7.11 64.71 6.08 62.78 6.08C61.74 6.08 60.91 6.47 60.51 7.17C60.14 6.45 59.46 6.08 58.31 6.08Z"></path></g><defs data-v-423bf9ae=""><linearGradient data-v-423bf9ae="" gradientTransform="rotate(25)" id="75bbce84-0389-4a24-a5e9-cbb303ce87b4" x1="0%" y1="0%" x2="100%" y2="0%"><stop data-v-423bf9ae="" offset="0%" style="stop-color: rgb(0, 125, 232); stop-opacity: 1;"></stop><stop data-v-423bf9ae="" offset="100%" style="stop-color: rgb(161, 195, 219); stop-opacity: 1;"></stop></linearGradient></defs><g data-v-423bf9ae="" id="71ec4011-b10a-4d17-94fa-46075189ef19" transform="matrix(2.8125,0,0,2.8125,0,0)" stroke="none" fill="url(#75bbce84-0389-4a24-a5e9-cbb303ce87b4)"><path d="M9.382 8.675h13.943v13.943L32 31.293V0H.707zM22.618 23.325H8.675V9.382L0 .707V32h31.293z"></path></g><!----></svg>